<mxfile host="app.diagrams.net" modified="2023-01-15T12:12:49.768Z" agent="5.0 (Windows NT 10.0; Win64; x64) AppleWebKit/537.36 (KHTML, like Gecko) Chrome/109.0.0.0 Safari/537.36" etag="4osVKXdb6L4QWylN3Sfn" version="20.8.5" type="github">
  <diagram id="YQd0R5hV132sucLtHV7m" name="第 1 页">
    <mxGraphModel dx="1434" dy="760" grid="1" gridSize="10" guides="1" tooltips="1" connect="1" arrows="1" fold="1" page="1" pageScale="1" pageWidth="1169" pageHeight="827" math="0" shadow="0">
      <root>
        <mxCell id="0" />
        <mxCell id="1" parent="0" />
        <mxCell id="Z1bGJlbx81K0T5IShOg9-5" value="" style="endArrow=none;html=1;rounded=0;strokeWidth=3;exitX=1;exitY=0.5;exitDx=0;exitDy=0;exitPerimeter=0;startArrow=none;" parent="1" source="Z1bGJlbx81K0T5IShOg9-1" edge="1">
          <mxGeometry width="50" height="50" relative="1" as="geometry">
            <mxPoint x="1049" y="541.63" as="sourcePoint" />
            <mxPoint x="972" y="209.63" as="targetPoint" />
          </mxGeometry>
        </mxCell>
        <mxCell id="Z1bGJlbx81K0T5IShOg9-28" style="edgeStyle=orthogonalEdgeStyle;rounded=0;orthogonalLoop=1;jettySize=auto;html=1;strokeWidth=3;fontSize=15;endArrow=none;endFill=0;" parent="1" source="Z1bGJlbx81K0T5IShOg9-2" target="Z1bGJlbx81K0T5IShOg9-27" edge="1">
          <mxGeometry relative="1" as="geometry" />
        </mxCell>
        <mxCell id="Z1bGJlbx81K0T5IShOg9-2" value="" style="sketch=0;points=[[0.015,0.015,0],[0.985,0.015,0],[0.985,0.985,0],[0.015,0.985,0],[0.25,0,0],[0.5,0,0],[0.75,0,0],[1,0.25,0],[1,0.5,0],[1,0.75,0],[0.75,1,0],[0.5,1,0],[0.25,1,0],[0,0.75,0],[0,0.5,0],[0,0.25,0]];verticalLabelPosition=bottom;html=1;verticalAlign=top;aspect=fixed;align=center;pointerEvents=1;shape=mxgraph.cisco19.rect;prIcon=l3_switch;fillColor=#FAFAFA;strokeColor=#005073;" parent="1" vertex="1">
          <mxGeometry x="78.5" y="150" width="133" height="133" as="geometry" />
        </mxCell>
        <mxCell id="Z1bGJlbx81K0T5IShOg9-23" style="edgeStyle=orthogonalEdgeStyle;rounded=0;orthogonalLoop=1;jettySize=auto;html=1;strokeWidth=3;fontSize=15;endArrow=none;endFill=0;" parent="1" source="Z1bGJlbx81K0T5IShOg9-4" target="Z1bGJlbx81K0T5IShOg9-3" edge="1">
          <mxGeometry relative="1" as="geometry">
            <mxPoint x="345" y="356.63" as="targetPoint" />
            <Array as="points">
              <mxPoint x="1022" y="296.63" />
              <mxPoint x="375" y="296.63" />
            </Array>
          </mxGeometry>
        </mxCell>
        <mxCell id="Z1bGJlbx81K0T5IShOg9-4" value="" style="shape=image;verticalLabelPosition=bottom;labelBackgroundColor=default;verticalAlign=top;aspect=fixed;imageAspect=0;image=data:image/png,iVBORw0KGgoAAAANSUhEUgAAAJIAAAApCAYAAADednA4AAAf20lEQVR4nN2ce7Blx1Xef2v1fpxzH3PvzGg0mtHobWskS7YUGcvCT4QxBmMgODE4gIG4YicOCQWYVIpyUkBVKGweSYAIqCLlQFFFKEOMsY3BgJH80NtIlmRpZI31HGlmNJr33HvO2Xt398ofvfc55965d+aO/CCVnrpzz92nd3fvXl+vXutbq7eYmXG2MlXDJP2Ws970/24xIGAIEYfx2MFT/Jvf/Biv3H0Rv/jj30ERIRdAIlFAz9piqhHP4du4Rg3h9Hk1pqc/rrpjZTlrm9OSlskl6a5LXGcUZy9yViBNP4mAiYGBtJ1ZWyFK+lttapxnavlMY13jgc9a7xzqmoAHBMMRqc1xTAVnsADkgJi1M2xrNbGiU9nAxFsr5tNrrhTc1FSvUVZCZf26q8Bw2nzK+GKkk1v7vPKNAtL02AWQ0IJLAcFbxGP4tooTQW0K5Wcotmq8Z7pnuu6ZQLrxNgUTw8wQkTShZmSSVrJZnK467u5M7afPsmJ8JraBeyZ9mMiqutZ9PdXm6WNZs82pB1ASRgxDBERTm6HVXK4T9IsEUnbGb8cLMiE1AkrAxBNiybJ3DLxRW8BImBOSUt3IUNaS8Vr3bbTei2kzPVNaoQa4FZp2Zd2V+mnStkx97opO1e/mRlfdN31/XFVfV9Vbr821+l8PCo03cqcUuWOuVArp9ITRadYXB6OzAQkSvC2QpjjBZEiPh48bf/i3X2XvvkOcHC7hFeJEY551QGcTynRZy/ZYy0Y4lzbHAmk1UrpoOO000umWSdIYq9q3SfvjMdnU5tEKy2SiKVYI38a3YJ1g16o71Y9NtckZ+l8xRhEsRnpFzmw/4803vZQfvWkHiwQccSzbjViEa5WprW29HbcDkhJRIoGHRvBTv/MF7n3OYVlGVLBMiQISUju6WqJrlLiqq/XuMTkdIOvVXd2m2PqAjrISSBINdS2Q4pRGmur/TGOe/jwW+lnGNF3vbO1P1109J8JK8J1WumcEsIa8PsBPvmEXP/+2G1nUJF/ErXXnhsoqIHVDm0Zlq0QtIfakRd79R3fxsS8dptx8KYOqSk/Q6d1oZzayv9Fl2kDoVAITW4P2UlrNksar0u4vhrQaidjZNtMbStu+tXpCWpXQGaqx3dTFULMWFG09CS1KJu2J2Wk2EZDQsxpRJIM4AWgd46gDqIGMVaeCRGJsx2kGUuPKEQs25GPv+zZev2MRkGT2slJ8G9VPa2xtRmz3zCYAEZxTTFMHzw+F+796gFhuYTBYBtVUqWm7jxtF0Xr1NmolTdW1dgydl6Vp/MmidKSpNzR4LBqmijkBUxRHjAIOEMFaY0XHAmsFb4YQUIsYDjPFtAWSesCD9CFmiDWYNO24c7ActALJICpiERHftuswSQAUiyAx2Wea9i+1ZK+l+W8Nb1PSgAGLmKT70AhRcJaBOcARRRJ2NGJjYy0j+JyhOJ480nDTDgHfEIqcGD0RIaL0xdCxOM4MqVVAMqBCUUaUnFTh7mdGPLT3OeoIAeGFQcORsAXcLIQwQfk5l68VSGeywLpJFrDQGtNCJMM6QdEKwxyCYeYZm7wqRMnAYrutW7vw0/ae/g5oSH4P0ScFEkMaV6sW1OqxHeasAotEBLWI0LRjiMkeM4eY4l2r1SzggkfxeE02qkmrSkXT4jE3UUEWExDNtZ6YImNtGVdOozkIJZUqH77jEI8erAlNBUWf87YscOW2jFfvKui1CmUj5vcq9z9iltTQ4yPHhz7xAH/9xb2MKkEsA4y5uVkO2SLL5hiboTJlDp+TRlqr7tmptrZTTtdISYMIgTmt2L29T98PEFdyYFl55viQKusBAY2Bq8+f5zxqjMhSkbPnuWUqekTn0cyxs4RLZww0YFH4yhHPEd8DFDVY1JqrLsgofIMgPH3K8fSyEl2GuIDzJ3np9k0sSkNhFUdsjkf2j4iuRKwhc8p5Rc0Vi9pCKuPxk7C/zrDo0ajMyYirdzmypkY149BIefKYUbs+mCOLy1y+bYbz3DIaPMNslkf2DxnpHIYgYxlN7D4xwaIgYsy5EXl9kkICdROppWTrjPK+t1zLe153IQtOcGttv6vKCo0UUXxQojP+7O6n+aO7D3LNxRfzzm9/GTOqGLBcw2//xQMMBgE0S6skERR0ZsfGSof2tQCy0WvTJmtS5ZiSx4Zrt5X89vtu4hIL1Or4n5/bz3/9+F3U+TZMI/HkcT7w3tfy1otyvBl7RPmRX/os+5sCkRrnPe96/Ut5/xsvYijGchP56Q/fwd/v83gKsMDLd87xP953A1u94Qw+9Kmv8Lu3H2TkMsw3FFS8/4du4o3nG3mELxwV3vPrf8Wy9pEmQ9V4zaVb+JUfvo5S03L54Ccf5w/ue56hj8Q4ywWbcn73X93ADgUR5SNfOsQv/fkejrS22Lwt8TPf+wa+8zIji8YzteNdH/oU+0JJ0CIppG6W2n2qUx3Oar7nxiu4+ZoFeu2W9uhh4f98/lH+28fv4+IF4Z9ev4v+BqSZdQqp81zMRQamPLD3CDMV/JfvfgWvfcksYpFalK8c9/xmfQzNtxHXiwlsqHQOsp7uurDq7xUItRWudQJwTFdbJWdkRB/oqbCYZVQCTjK8tLaRAKLEloicLYViBFkYouJoXIM5RyCgDvou2U4OIbYWqTOYy4VtDhYRxKCPx5lHMXxTU+SB+Rw258IMMJ9BLh4lImaoCaWk6wVCcCBRqUY2XpwaRuRqzBYZXiDgWR4sw1wPJMOjFCos5kJucNBD48FU6chjs85pszRPEpNdFz3XnV/yzt3zuNafGlrkmgt283O/e5D7n3ye79ookFaLFoQADEYNuTo29QoKIBOjEOhb7Byc0wV+tjLlRY1/d6iwFZXaLyaGbgcgaQkZwYgrmAtt7ZmGEEcEAmQwAIYGcXaOkOetUa30+hmZREZFa1GV0KjQVGBWID3FlUp0KZziAR8cGhSTAosjIKMCGpeAFXEQFDFPVgh9VyIhDbEB+j3IoidDCK5HjecUxnGBrZL6cKWltrMS3IigFUvAMt33PWJvvrWVKsRsLI8MCEBoaigihM6zTC5U+tSaDiKIKLl5clJsUTBmxNjVE9RD7tzGvbYY4pg7EcCi4JQkPI14FYIKWTsEZ6BkmE2Y0HMrq+6w9J8QW34ltjyJwzruVtrxSJhwr2atSa2Y6ITZV0dmJc/Xgd+/7TBbdURNxuefWqbGIXWNqaOKwse/fJBH9uV4X7Ps5lgmR8uZZHI1FV/YexSxBiQnxJzHT0YastYLcjx2pOKWzx+mN6pRInfvV2rtJ4CbcDzm/NndB3hgwZObZ189x1IsCY1HtE9wjkeORm65bT+bnBFFuXffERweazmdkx7+5I79zLkCJ8ZdTy9RRwfmER3ShIJP3HWIfc9CFo0DVcZyKNAQUYUQrfVQSfNEHC+8pDJimuV2mtXSNp0chLhxIIkKMUacOzsZ1WmsJDNbcfXcS3dfSAPuvKMuuBk9XTRa8ATpCNEuAKNoW98MijCk9CM0GlEy9g/n+Z2/3ItYg/ZLzIy8GtEbHaHSHjq7mY987jGKskeohpSZYsOKubCEiXEywO17Zrnjof1QOkQUa4yCIXmMmEWeONLnNz76MC5XouSEKpD5ET0/RDJjpD0+8oW95Lkjt5qRZWjepxwepWCZUVHy5GHllr87iUZHdIL6AW7wAgtOCNZjkBfc8okv4cpFQgiEAPiKLJ6kHwIUF/CX9z/FJx9uKLKMZtBQWp/5pRdwPaHOHMNY0EiPpHtjKztdPw7ZrVXWz2hYXTIRmYQIgElUqHWFxaadyXZ7aUmlcXR8em/aALCkvd8SPZ/Fip4TRqNl+jOzbNuyiZ3bMnZs3cYFC7PM2Qk+++Bh7nhqGXOzaQvTgiABtSGFed563S5+4uaXMh9GNJLzO595kk9/+RBDKXB1zWI4zgff92ZetsmopeDuE8IvffgzDEYRl89DdYxffMeNvPGSBWoVlnPhZ3/vczxebcFbRRGWecu12/l333MDveAZIvzyR+7i7v0NTcv1XL4Y+bX3fjtbzGMKn3zsGLd8/B68bQFysmaJH3jVhbz79TeRx4xBP+NXPnI7d+8bUUsfiZ7rt2f82s/+IHP1CMj53/c/y2/f/ixVzEFKFvpDPvSe7+LybEg/wJ0HIh/4g7+G3k6GoWbW1fzo63bzYzedj0lkHyW/8Ie38diRhpiXYGk5xjXkpADSBXhloqY2CqS1hc0UOLoL0nIeKyy4VfU2UFaQzIFSIz31vPKVL+clu3fw/GHYs3cPe599Fq1P8n3Xbeb733YDd9zy2dZs6myniLOARU8ZB1y7K2cxRLzATDagcQaS4YocrZe58qI5rp9Piu6gQRErKpdMyYhwyabAq3YWnFI41ARm1PB1hKxEY8PFcyX/ZJvQCzkDZ8z1PbUoiCJiaFjm+p3CziZnmMEXny8oegV1VAI5/dLYvqnghl19egFOKSzmSdtChoWauVy4YmvGFhYoAty6yRGkBCJFv48uP8/LdsL1eZ/cYF+ssX6OjxlIRqMRl9dcvaMgN9iusFh4erkw6OzsMeu+skTa70jE+lp11iunMdsdCKe3sU740l2xzrSJKxErpBDDaMS2vnDZeSVZPULxnIgZew83DGUBdZEYKzKJbJ/rsfPSy9i8MM+h/Uf484/fyWDoaShoyFGUAyeWqJ48TDSf2FsLaGzAlEAJwTNfFswApUvx+5hBcB6sJjQR84E6QtVAYYY4QaSH08SP0SiNORpJWG08OFeSFTP42CT9HB2ZpXylWYQsGg5Jhr00ZHMFIwBJ1yU0eD8guj5oTtMEYvDElvIyAQkBtUBQUC1RM0qRlB8ELQmpIA3N8DhFnuMEQkyCD2qYNKh6ogqVRkZFRm3g2gS9enCSUOVQzhDV4ePK3IZuP9FWhusxfOcEpG7jFDFE037agaqzTibwsgn6utt9Q08ir9m1wAd//HrmLbm6h4Af/42/46EjNXkvUOQ1N167m14z4h/2Pc599x7m/Ll5XDViMWacGg0p+zNYVvHq17+W3//IPRTzC1S1gDUUMeKlj9c+vcLYf2TAo0dgloxa4NBIEWeYr1thG08fhxkPhQlPHAYrNtOMlsmLHpCx94Rx79HE+RxXGJLhY5rW4OBQlfPgIcgi9PowqEs0VERnaKw53jgeOAHHojAcwv6TDcQGyUYYBb5pOFplfPkIFA6ORjjpCzRWifQk4/CpmkdPQm8wxEvOvuVkVJiC+ZqhKXuPtaS2wVNHh/T6JVUYEDXDzLPvVMXDJ6EX4ZiDQSMtXGKiPVSRTt0YaxsllnK1Ngqo0xLbKgsMcLz7li9w5xPH+NP3fyc3XliSW0Lsgy/UfO+vfYZnZCFpB5kASSLkoWI2LPHrP/Y63r57C/08TVpt8EdffJ7/8Kf3sbh9My+/aBvnS82Nu3dw7zMn2ZUvcfN1l9OEBhdLlnF89PNfYuHiS7j9wSe474kXiP2txBjJ4xCJJYEeURTqAfPqKWeMhoosCEvlDKMAVG2wNMBMpsxlGZkZQxwn67rlihwShLnc6EmFs4DmJcdGQkWB10Q5FN6zZbZPaIaoDDnhHY2bRUKKmxmefi70C6irioaCYd3gJGnOzBXk9YC53MAUL0qlynJMWzAIPTy9MCQXI7iMkRUMfJbc5XpIrsqsKrNF0lQnRTgVUlphJhkBo8yF2dESUVNGRhNh6DMs69GZ0AIUseGX3/YS3vuGxBW5GBECtz034J//+q28500X8x+/7wYWNwCks+cjdYhrfyuSjG2ZiuFM6awFyblhh+OGV2zmV/70br77pkt4za4LKHzkrdedx6e/ejHPjoxtMuADP3ANpSqHjyzzppft4vzFnJ//8K1csbXgp/7Zm9j05qv5kVtu5eCowBeLJAY0YigmGZgiZsSs5CRz4CtwoKbEOqbAp2agOThhEGFQJ22LBiTTRDJGQzJYMmE5zqTnqVM0PI4fT6mznIOVB8tQ5sloyPywtXHAJGcpOJaGAiShiSswEzLzSBjSqHA8OEQSE++nk7gijCgYUbZ7V0TwqHgkCLgeXoQTGNVI8JK4LyQHabNUJTJqjJH121hhCeTgmgnfBoic3R87F775RWYxrfG3AAQ25fCBd30nzx0a8sd3PsrH7nuagUJUYb5w7D4vsuehR9n3wjLHBrDoQKrDzGSK95FDx5fJiz79DJ4/VrPEHI32mRBFDq89Ism2MYkt/+HJvJE1JRJ6KYAZmzQdUqcfDaAxbRPtahURUCFoJGie2hbX2oQJcLgRIhWIT2SoSYqqE4mSEWQGFx3OkuDR9CN4nCku5hglngKvBUHz9thBivgrHrWaFMidGquAaaI/sgguOkxyzBUEcoI6nBkucQJtvxWJ/szahCtBYySPnjzWLZiyM25Z46Q52bitdGYgmY65hC55PcXOO6y2VlM74CIGvuNVO7lse86Bp47xpte8DuIiFVBlyYr/3ldfw7zmPLj3Ob745CmWAoT6BFmmOIWbX3UdV150KRFoTAmhtcqs3czNASVRjKi+TaHwZAzIY8CFAqyY5ONIBPPtT0iaVNM+LQIaI85iSoeRRLsKAUeDsyYJxTWtkFP/GlNYx0tGIz3MZtFY4qJDzYMMQVPkX6PioiNajyizmPQJUmCWtUFVI4sNSgPSJLZahgkQrvOMHSnzIEsAkYxGM6I61CC3kHg3fKuFEv+m0aUMgljjrE6auPUyN+LXn4vBvcbWpmv/FqP7Fzsmq03UyrIMq0dsK+AHv/VCqhquv2Iz11wh9DTjyNFlFrbOkgOXzCnv+Z5Xcuf9D7Nja5/SwRWXX0bfCUXu8MOKg3VNEXey2UXcaBmJPVzZx/smTa75ZJwKgMNigznF+xqTKk2RDzhJ6R9ZzBJr4GAUKjRXGFb0CWSxIYpS+R5Ra0RCy5ilxZKZ4n0GRiIi/RCNQha6iE8F1hAsIKFKwc/a8OUsIRjBV1is06GCllIRibjg8ZlHFHJ1DCVg5nDRgICTBrEBYgVYiWgARjiz1G6m5MHoYVhMuVhatS5RjJidSmBQJeY5leQYrk2++/qXDdlIE8ukU3kRsYAzwUuJhMhMHPCuN38ru7f3+Le/dRu3ffUwuShvfMkFzOiIX/iJb+eScsiWrM/3f8sW/v5vHmfp1LegbCWMMgZLkQzP/fc9xCsvv5BBAzu2LPIzP/QWfuNjd7IUgRARda0H4mkDZ/SbIe98w8vYostkhBVrLSKI9XHU1KLsPTHibx7Yx9XbZvjW3ZewKTequqHWEsWTSbPi2Ze0x6f3HGR44gRvftW1bJaGIjaIymmZDhY8jRQ8uO84j+w/xRuvu5ydM00y3qc4N5WkxYM2RBGePDLi03v2c+Ml53H9ZduhHlJoRElznALMOr5/OZvlo/c+xWaEm19+JTM2wMWGXkyedZzyuKpcOJaV3PX0CzxycECKSTrWp7VfXDkdSOPsji5oOilpizNMbKWdHY1XXLWD73jtArc/fpK7nj3B0sx2qBvC5ou476F7+Pv7HuUHX3cV3mBhboYf/rF3MHPBVp4HHj4RqcoTvG77Tt7zr9/OIpFBCZ/8q3vYetUuvu21V/OJWx9BimJqgBmYIBEW52Z535u2c9WmksBKpW1A1nJgtcA9RyOff/AJXnHhHO9/+5XMkXihDpb5quk4HOHxwy9wcFTz7996GS/pG6UlfmctY7QB/vun9rDv4BHeffN2XrNzboqXm/zunqIC7jwU+NyeZ3jHjdfyzhsXcEBh46TN8dx39x0D7nn4Oc7Lan7uB3ZxXlu/yxietm0qg+cNfvGjJ3n8uWPUUiaN29mH0+T19FGkjtneYFlDI61+5LUbm16NTQw89tQxfvpXP8uwaTihM0QNuNLx9PEBN7/t7ZyYDfzJ/ad4ZO8z3PvIE7ywNEQJzJaRfaOMLPNsKQvmigUWysjcppyrrrqGvY8Kf/GZe6A/1z6XtDHcNHRnEfHGPDAbp72sVNRAYzKSC+fo1xW9DIowYI50ILKgItJFulc+7xBH1ngyIvPAVhumLV3WSq4IDNTR8wOkWmYuRBZjym48bXrbI5q5OMowpABm6xGLcYGMFtAdGlal0HuFrKmZLRpKg00W0WhT58AmcO0RGVlO5psUqbSIpkSWNJwpArrDjUz9bLSclo/k2rUyiaCtrQJTuLSNJkc42uQcPVITYoSZEpwjROWRg6fYu+92FjfN08+VTVmELZczMz9iy5ZFBoMBV+Y9qnrEXNHD6oqjbsAL0XHXrXs4vtTgZucIYZqLTSMVSznUUZQGWZPSTwcUlZEKASFSYDiiOMJUPSUAebuBT0oEMMObEoSUgqtuTY8m0rUpBEnueWwTAtPVaRELAaUCgrRsvHqCTurqWBKTUKuJ4RHMJpZcrUrZxT5lJWEcSaklHkcgB9EkU4Fxjks3Lht/GhPPGwXTmiGSRL0L+UyGlo5RrDDfYFameIwqWAcksEwSh5EViORYsE4C1NTUKMunltvUj85Qj/D8EjB95CYgBLymrcPMgeulLcy59qxZJ+hIp/CjCCWgPqD56iwGwZzQayenaEbgA6o5EiA0QJmDJKCtXjiG0ItG4UMbnfFEIqbTY2mF4MEVStUYqBJdB4PJ4oytcH2rpXJgJhjUkX4uY47XWyfkiLT2kWgHquQ8ON/QEyjanf50sQtKOgiZx3R2LYokp4100sU3DbWHzIzSVwxjoKeKRCOL2ZSpc+ayZtC2h3H1RVv57FeP8fuf2cP3v2Y3Pc1QUw6cFEZuDqHAwtqU1SQeZ627PTk3Gjo1P2XshXZ60hN2Ce0r9+jxEerJht6u4sgI5SvLQOGop9UMY1I7ucnAIZ1lEJR9vuCJAPNAr1bqdgHFVRb0ksFS7DFgjmcqMJ05bfvsSmlQVXCUOXy5iYPR8cBI0gspaGPdLaCCMX5Bxf5mBu3N8+Qp4atNe4LWXPuUbtxXN4unFJYoWM4yHh/CwZaB6U6FrZZGpXAizhJkOD7+pOYwAk81s/ztwUhfjMwrSx7+5I69OK25YC4lNW6kSIwp11HaM1rePIrjcwcq3vtbf8uxWoAaZ4bGjDxzLC1eyNFT1SQ916ZU5CpvIHl50yt3cm5scg1WHCc67a0YU/e3ZCEoKgGRBudKLi4CvbiE0UxAPNZYilkfmsjI1xywEpMhF873KOsKiTVB2yF1Z9NaQAXJOFY7PDkXzislA2K7RayYSAPxhnMFB5aGHMNx/rwyT00MHQcmRHw6tmaRWno4VaIZB09FtvRrtsw5sqxgOBgB0q6lFlTt4QYvBfuXArPiWSwCqpFABjSkZDUbz2vwhhabOFBnLMUM2mNYechxVLi4zEzmKbJIHHiOLA+Zm8147aXz/N5PvoXzFbINaKRVQIpE83gcI1MeO3iKT335AP/w1FHqmBjaxuAL+04xoBzvoesBqdty7SxASuOcOv0ubQ722IOYPrmXjuIkpd0g0uDVoUESV2xpy0tKrSMuHGb91oTw1FnENCCWXnhBDK29IMk1jnk7rjTGgGIoTlICnjGxe9IYJ6OVVtN4ca1JGyY0MdJeS88XpEhgsZAolZb0nGqtfe5pSSagRxG0PWcHRujO2Em35UsiZc1h5Ik+EBL7bYILGbnVvOSCGbZvckjwZH6GTX3juotK/sUbLmZXluMcU2fb1i+rTtoGIkbVpZMGqJ3QTHHZjx+DH/qtW3mumpkAf/zmjs5ET8C0bg5kjUmJY2SsuncNjSQyQSUCUclMSO8vCkQNQIaYrngTikkyNZMhmc6wmUBwNYlFziGWLRPchlO682KsEt6K2FRc+d3Uc3fcVmqre57J2MUiEwN6SrOZT3q3Db+s6Otsghyf6lxt/rv2WRRoF0trYIsp/VjxwR99Be94xTbUUuCkAfptf/PGmCo4xwOS6WFTHFpwDkog2iitu1iim5StWeC5QQOi7REXS/t/5wUY6QzV2HlYw5lck6NYDchp0E3XlxSRh4mAzWMkz2pFt3RpMIkCSNdaoEZIAGq3QWMilDGIu/+mhXQmIHXJRrYmANIBzfFfU4vMkpLukoKm52Ks5afNAV01h/F0w9imrgMQ2i6FUhXzwoIT5pnwUN4CIimYbcGDShtgPnM5DUg6/SyQnHwxsAycshnjX37Xq/lPf/x5qnILdVOjWTZBrQEr3vCxTs9rrrJVqDfGkzWt7FNkRtpz8J3xvvK26TZPH0K+4p4kp2xd/s1aME12mA2EGdYl89a5d3X9NW+XNT539tzpNhuy8g5txa0Rcu956Xl9rt25icIMlWQWFN0iwEinQDYWl5sC0hpaY6qMX6ESAj9ywzxPP38l/+u2ZygMxPvWI0lG5UbeJtiRi+t+Dy0gJzb4iqKrt4CvoVicvMljVT82tR42fvjz61E6L3Wth2dia64jtxVvPLGpmpb+u3Rbj//8fS/lms05WawSdmTDWUVr9HcWqSfvpwEcRIfEBnPGYcl58IDwyKNPJl5lqpXQsTFnmfh188XHg5t8nt7+u/yD8KLeOTDdfzsGYxwLW21mTJOc31wgrd4up7+a1j7raLgpIGm7nSFCaDxbFuZ41ct2cM1sxCN4S86cW+dIwNnkBBsCEjSkhIcsglggqOFxNEEoWs5q/NYU2djx/7MopPQIU+2s3vqNxMV8rWV8nmuNfrq+unIuyfD/2GWtdzBNmWM4SyeLGy2IzqVEFZtOre7KxoB0Vl2WhDbJ146ihPbvWaAZecoOTV39jQhYOG0bWd2xrPp79cd1lP45lYm6b/9eZ2sbd/hNB9OZnnA9o25Vrdb5MQzJlaYKyaGTNr7YmhBjJ+FFlA1ppOkB0XnincPxzShrjXB6y/k6aKY1ml23629ueRFAOkMtW+PTtHO81pvwvi5b2z9mWR1Q/kb2M2HpJ9Pxjex3xbsr/z8o/xexJNjLN3Y0qAAAAABJRU5ErkJggg==;" parent="1" vertex="1">
          <mxGeometry x="905" y="183.63" width="234.14" height="65.75" as="geometry" />
        </mxCell>
        <mxCell id="Z1bGJlbx81K0T5IShOg9-13" value="Trunk" style="text;html=1;strokeColor=none;fillColor=none;align=center;verticalAlign=middle;whiteSpace=wrap;rounded=0;fontSize=15;" parent="1" vertex="1">
          <mxGeometry x="229" y="189.63" width="110" height="20" as="geometry" />
        </mxCell>
        <mxCell id="Z1bGJlbx81K0T5IShOg9-14" value="Trust" style="text;html=1;strokeColor=none;fillColor=none;align=center;verticalAlign=middle;whiteSpace=wrap;rounded=0;fontSize=15;" parent="1" vertex="1">
          <mxGeometry x="550" y="188.63" width="110" height="20" as="geometry" />
        </mxCell>
        <mxCell id="Z1bGJlbx81K0T5IShOg9-15" value="DMZ" style="text;html=1;strokeColor=none;fillColor=none;align=center;verticalAlign=middle;whiteSpace=wrap;rounded=0;fontSize=15;" parent="1" vertex="1">
          <mxGeometry x="808" y="188.63" width="110" height="20" as="geometry" />
        </mxCell>
        <mxCell id="Z1bGJlbx81K0T5IShOg9-17" value="" style="endArrow=none;html=1;rounded=0;strokeWidth=3;exitX=1;exitY=0.5;exitDx=0;exitDy=0;exitPerimeter=0;" parent="1" source="Z1bGJlbx81K0T5IShOg9-2" edge="1">
          <mxGeometry width="50" height="50" relative="1" as="geometry">
            <mxPoint x="255" y="209.63" as="sourcePoint" />
            <mxPoint x="356" y="216.63" as="targetPoint" />
          </mxGeometry>
        </mxCell>
        <mxCell id="Z1bGJlbx81K0T5IShOg9-3" value="" style="shape=mxgraph.cisco.switches.workgroup_switch;sketch=0;html=1;pointerEvents=1;dashed=0;fillColor=#036897;strokeColor=#ffffff;strokeWidth=2;verticalLabelPosition=bottom;verticalAlign=top;align=center;outlineConnect=0;" parent="1" vertex="1">
          <mxGeometry x="305" y="183.63" width="179" height="57" as="geometry" />
        </mxCell>
        <mxCell id="Z1bGJlbx81K0T5IShOg9-20" value="" style="endArrow=none;html=1;rounded=0;strokeWidth=3;exitX=1;exitY=0.5;exitDx=0;exitDy=0;exitPerimeter=0;startArrow=none;" parent="1" source="Z1bGJlbx81K0T5IShOg9-3" target="Z1bGJlbx81K0T5IShOg9-1" edge="1">
          <mxGeometry width="50" height="50" relative="1" as="geometry">
            <mxPoint x="535" y="209.63" as="sourcePoint" />
            <mxPoint x="972" y="209.63" as="targetPoint" />
          </mxGeometry>
        </mxCell>
        <mxCell id="Z1bGJlbx81K0T5IShOg9-1" value="" style="shape=image;verticalLabelPosition=bottom;labelBackgroundColor=default;verticalAlign=top;aspect=fixed;imageAspect=0;image=https://www.paloguard.com/images/PA-Series/PA200-Series/PA220_FrontWtop.png;" parent="1" vertex="1">
          <mxGeometry x="625" y="169.63" width="222.46" height="80" as="geometry" />
        </mxCell>
        <mxCell id="Z1bGJlbx81K0T5IShOg9-25" value="Vlan 1" style="text;html=1;strokeColor=none;fillColor=none;align=center;verticalAlign=middle;whiteSpace=wrap;rounded=0;fontSize=15;" parent="1" vertex="1">
          <mxGeometry x="350" y="240.63" width="110" height="20" as="geometry" />
        </mxCell>
        <mxCell id="Z1bGJlbx81K0T5IShOg9-26" value="Vlan 254" style="text;html=1;strokeColor=none;fillColor=none;align=center;verticalAlign=middle;whiteSpace=wrap;rounded=0;fontSize=15;" parent="1" vertex="1">
          <mxGeometry x="461" y="190.63" width="110" height="18" as="geometry" />
        </mxCell>
        <mxCell id="Z1bGJlbx81K0T5IShOg9-35" style="edgeStyle=orthogonalEdgeStyle;rounded=0;orthogonalLoop=1;jettySize=auto;html=1;strokeWidth=3;fontSize=15;endArrow=none;endFill=0;" parent="1" source="Z1bGJlbx81K0T5IShOg9-27" target="Z1bGJlbx81K0T5IShOg9-34" edge="1">
          <mxGeometry relative="1" as="geometry" />
        </mxCell>
        <mxCell id="Z1bGJlbx81K0T5IShOg9-27" value="" style="shape=mxgraph.cisco.switches.workgroup_switch;sketch=0;html=1;pointerEvents=1;dashed=0;fillColor=#036897;strokeColor=#ffffff;strokeWidth=2;verticalLabelPosition=bottom;verticalAlign=top;align=center;outlineConnect=0;fontSize=15;" parent="1" vertex="1">
          <mxGeometry x="75" y="366.63" width="140" height="80" as="geometry" />
        </mxCell>
        <mxCell id="Z1bGJlbx81K0T5IShOg9-29" value="Vlan 1" style="text;html=1;strokeColor=none;fillColor=none;align=center;verticalAlign=middle;whiteSpace=wrap;rounded=0;fontSize=15;" parent="1" vertex="1">
          <mxGeometry x="118" y="446.63" width="110" height="20" as="geometry" />
        </mxCell>
        <mxCell id="Z1bGJlbx81K0T5IShOg9-30" value="" style="strokeColor=#666666;html=1;labelPosition=right;align=left;spacingLeft=15;shadow=0;dashed=0;outlineConnect=0;shape=mxgraph.rack.dell.poweredge_r440;strokeWidth=3;fontSize=15;" parent="1" vertex="1">
          <mxGeometry x="65" y="516.63" width="162" height="15" as="geometry" />
        </mxCell>
        <mxCell id="Z1bGJlbx81K0T5IShOg9-31" value="" style="strokeColor=#666666;html=1;labelPosition=right;align=left;spacingLeft=15;shadow=0;dashed=0;outlineConnect=0;shape=mxgraph.rack.dell.poweredge_r440;strokeWidth=3;fontSize=15;" parent="1" vertex="1">
          <mxGeometry x="66" y="557.63" width="162" height="15" as="geometry" />
        </mxCell>
        <mxCell id="Z1bGJlbx81K0T5IShOg9-33" value="" style="strokeColor=#666666;html=1;labelPosition=right;align=left;spacingLeft=15;shadow=0;dashed=0;outlineConnect=0;shape=mxgraph.rack.dell.poweredge_r440;strokeWidth=3;fontSize=15;" parent="1" vertex="1">
          <mxGeometry x="66" y="596.63" width="162" height="15" as="geometry" />
        </mxCell>
        <mxCell id="Z1bGJlbx81K0T5IShOg9-34" value="" style="rounded=1;whiteSpace=wrap;html=1;strokeWidth=3;fontSize=15;fillColor=none;" parent="1" vertex="1">
          <mxGeometry x="35" y="486.63" width="220" height="150" as="geometry" />
        </mxCell>
        <mxCell id="Z1bGJlbx81K0T5IShOg9-36" value="DMZ" style="text;html=1;align=center;verticalAlign=middle;resizable=0;points=[];autosize=1;strokeColor=none;fillColor=none;fontSize=15;" parent="1" vertex="1">
          <mxGeometry x="29" y="485.63" width="60" height="30" as="geometry" />
        </mxCell>
        <mxCell id="Z1bGJlbx81K0T5IShOg9-38" value="Trunk" style="text;html=1;strokeColor=none;fillColor=none;align=center;verticalAlign=middle;whiteSpace=wrap;rounded=0;fontSize=15;" parent="1" vertex="1">
          <mxGeometry x="113" y="345.63" width="110" height="20" as="geometry" />
        </mxCell>
      </root>
    </mxGraphModel>
  </diagram>
</mxfile>
